<?xml version="1.0" standalone="no"?>
<!DOCTYPE svg PUBLIC "-//W3C//DTD SVG 20010904//EN"
 "http://www.w3.org/TR/2001/REC-SVG-20010904/DTD/svg10.dtd">
<svg version="1.0" xmlns="http://www.w3.org/2000/svg"
 width="1671.000000pt" height="1671.000000pt" viewBox="0 0 1671.000000 1671.000000"
 preserveAspectRatio="xMidYMid meet">
<metadata>
Created by potrace 1.14, written by Peter Selinger 2001-2017
</metadata>
<g transform="translate(0.000000,1671.000000) scale(0.100000,-0.100000)"
fill="#000000" stroke="none">
<path d="M2454 16555 c-8 -5 -22 -24 -31 -42 -10 -17 -157 -263 -328 -547
-170 -284 -319 -531 -330 -550 -11 -19 -119 -199 -240 -400 -121 -201 -225
-373 -230 -383 -6 -10 -60 -100 -120 -201 -61 -100 -115 -190 -120 -200 -6 -9
-243 -405 -528 -879 -284 -474 -517 -864 -517 -867 0 -3 8 -6 18 -6 11 0 31
-23 54 -62 20 -35 84 -146 143 -248 59 -102 116 -201 127 -220 11 -19 62 -107
113 -195 51 -88 102 -176 113 -195 10 -19 77 -134 147 -255 70 -121 136 -235
147 -253 10 -18 53 -93 94 -165 42 -73 153 -265 246 -427 94 -162 179 -307
189 -322 11 -15 19 -29 19 -31 0 -3 30 -56 66 -118 67 -115 242 -418 274 -474
9 -16 76 -131 147 -255 72 -124 140 -241 151 -260 11 -19 77 -134 147 -255
193 -333 175 -295 155 -330 -17 -29 -152 -264 -583 -1020 -110 -192 -211 -370
-225 -395 -50 -89 -715 -1257 -752 -1320 -21 -36 -49 -85 -63 -110 -48 -85
-247 -435 -256 -450 -6 -8 -19 -31 -29 -50 -11 -19 -90 -158 -176 -308 -86
-151 -156 -275 -156 -276 0 -2 -22 -40 -49 -86 -36 -59 -47 -88 -41 -99 4 -9
32 -57 60 -106 29 -50 60 -103 70 -120 9 -16 194 -334 410 -705 216 -371 417
-715 445 -765 29 -49 67 -115 85 -145 18 -30 44 -75 58 -100 14 -25 120 -207
235 -405 115 -198 217 -373 227 -390 9 -16 162 -280 340 -585 178 -305 332
-571 342 -590 11 -19 32 -55 47 -80 16 -25 40 -66 55 -92 15 -27 34 -48 44
-49 9 0 1074 -1 2365 -1 1291 -1 2350 -4 2352 -8 3 -5 16 -3 30 3 16 8 47 52
88 127 36 63 73 131 84 150 30 53 410 729 593 1055 90 160 174 310 188 335 13
25 32 59 42 75 10 17 30 52 44 79 74 134 513 909 878 1548 343 601 413 718
431 719 12 0 1087 0 2389 1 l2366 0 185 322 c205 357 244 423 271 469 23 40
740 1286 806 1401 9 17 41 72 70 121 29 50 64 110 78 135 14 25 82 144 152
265 70 121 188 326 262 455 74 129 212 368 305 530 94 162 183 318 198 345 16
28 38 66 50 85 29 47 35 66 25 76 -4 5 -88 149 -185 319 -98 171 -230 400
-293 510 -63 110 -124 216 -135 235 -10 19 -23 40 -27 45 -4 6 -19 31 -34 58
-43 77 -67 119 -236 412 -89 154 -176 305 -193 335 -16 30 -38 67 -49 82 -10
14 -18 28 -18 31 0 3 -107 191 -239 419 -309 536 -733 1273 -759 1320 -12 20
-32 55 -46 77 -15 22 -26 43 -26 46 0 2 -18 34 -40 70 -22 36 -40 67 -40 69 0
6 -67 115 -80 132 -8 9 -31 14 -64 14 -28 0 -58 0 -66 0 -8 0 -1061 0 -2340 0
-1279 -1 -2333 -1 -2342 -1 -14 1 -96 128 -183 283 -10 18 -273 466 -409 696
-37 65 -80 137 -93 162 -14 25 -35 61 -48 80 -12 19 -118 199 -235 400 -117
201 -223 381 -235 400 -12 19 -47 78 -77 130 -31 52 -156 266 -279 475 -211
360 -556 956 -621 1075 -27 48 -52 92 -119 205 l-18 30 -2352 0 c-1564 0
-2356 -3 -2365 -10z m4868 -505 c121 -212 228 -398 238 -415 10 -16 33 -57 52
-90 20 -33 149 -253 288 -490 139 -236 261 -443 270 -460 10 -16 55 -93 100
-170 46 -77 91 -153 100 -170 23 -40 200 -341 285 -485 37 -63 105 -178 150
-255 91 -157 419 -715 444 -757 51 -85 81 -139 81 -145 0 -12 -9084 -10 -9089
2 -2 6 511 868 1140 1917 l1144 1907 2288 -2 2288 -2 221 -385z m6758 -3552
c0 -8 -225 -404 -427 -753 -12 -22 -26 -46 -30 -54 -3 -8 -70 -125 -148 -260
-77 -135 -144 -253 -148 -261 -4 -8 -17 -31 -28 -50 -24 -39 -168 -290 -207
-360 -14 -25 -294 -515 -622 -1090 -328 -575 -702 -1229 -830 -1455 -128 -225
-241 -422 -251 -437 -11 -15 -19 -29 -19 -32 0 -2 -26 -49 -57 -103 -31 -54
-101 -177 -156 -273 -55 -96 -107 -188 -117 -205 -9 -16 -127 -223 -262 -460
-135 -236 -254 -444 -264 -462 -28 -48 -147 -255 -160 -278 -6 -11 -30 -54
-54 -95 -23 -41 -54 -96 -69 -121 -247 -438 -747 -1309 -751 -1309 -5 0 -256
450 -393 704 -21 39 -76 139 -121 221 -46 83 -145 263 -221 400 -168 305 -360
655 -572 1040 -88 160 -177 322 -198 360 -21 39 -84 153 -140 255 -56 102
-154 280 -218 395 -63 116 -171 311 -240 435 -123 223 -124 225 -109 255 8 17
195 345 415 730 220 385 411 720 425 745 14 25 50 88 80 140 30 52 68 120 85
150 16 30 33 60 37 65 4 6 18 30 32 55 14 25 188 331 388 680 200 349 375 656
389 681 223 397 419 729 429 729 7 0 11 4 8 9 -4 5 -2 11 4 13 21 7 4520 3
4520 -4z m301 -268 c77 -135 150 -261 161 -280 42 -75 75 -133 388 -675 178
-308 336 -585 353 -615 16 -30 36 -62 43 -71 8 -8 14 -19 14 -22 0 -4 11 -24
23 -45 13 -20 36 -59 52 -87 25 -46 350 -610 523 -909 41 -72 83 -146 94 -165
32 -56 242 -420 339 -588 49 -84 89 -155 89 -157 0 -3 15 -29 33 -58 18 -29
41 -69 51 -88 l18 -35 -101 -175 c-118 -204 -95 -163 -266 -460 -75 -129 -140
-242 -145 -250 -5 -8 -154 -267 -331 -575 -177 -308 -355 -618 -396 -690 -42
-71 -85 -146 -96 -165 -23 -41 -316 -550 -343 -597 -11 -18 -51 -87 -90 -155
-38 -68 -158 -275 -265 -460 -106 -186 -199 -345 -204 -355 -84 -150 -100
-173 -119 -173 -178 -3 -4600 1 -4603 3 -2 3 188 346 226 407 18 28 146 254
150 265 2 5 7 12 10 15 3 3 14 21 25 40 28 52 54 98 241 425 95 165 183 320
197 345 62 110 471 827 484 847 8 12 26 44 41 70 14 26 152 269 306 538 154
270 291 510 305 535 14 25 86 151 160 280 74 129 145 253 158 275 12 22 93
164 179 315 87 151 169 295 183 320 14 25 59 104 100 175 41 72 86 150 100
175 14 25 187 329 385 675 198 347 370 648 383 670 12 22 143 252 291 510 148
259 272 477 276 485 4 8 22 40 40 71 17 30 111 193 207 362 96 168 178 303
182 299 4 -4 71 -117 149 -252z m-5004 243 c-2 -5 -40 -71 -84 -148 -44 -77
-91 -160 -105 -185 -14 -25 -50 -88 -80 -140 -30 -52 -66 -115 -80 -140 -34
-61 -986 -1731 -1110 -1950 -56 -96 -109 -191 -120 -210 -11 -19 -164 -287
-340 -596 l-319 -560 -2336 0 -2336 1 -254 440 c-141 242 -264 456 -275 475
-11 19 -35 60 -54 91 -19 31 -34 60 -34 63 0 4 -9 19 -19 34 -15 22 -321 548
-416 717 -13 22 -71 123 -130 225 -59 102 -150 259 -203 350 -52 91 -203 352
-335 580 -132 228 -247 426 -254 440 -8 14 -22 39 -32 55 -10 17 -75 128 -144
248 l-125 217 4594 0 c2528 0 4593 -3 4591 -7z m-2235 -4063 c3 -3 38 -66 78
-140 40 -74 81 -148 90 -165 9 -16 33 -59 52 -95 19 -36 47 -85 60 -110 55
-97 239 -431 298 -540 34 -63 75 -137 90 -165 166 -301 233 -422 270 -490 23
-44 46 -84 50 -90 4 -5 23 -39 42 -75 19 -36 235 -429 480 -875 245 -445 459
-835 476 -865 17 -30 71 -129 121 -220 140 -253 147 -268 135 -288 -6 -9 -26
-44 -44 -77 -18 -33 -53 -95 -77 -138 -24 -42 -55 -99 -70 -125 -14 -26 -54
-96 -88 -157 -34 -60 -94 -166 -132 -235 -38 -69 -130 -233 -205 -365 -74
-132 -146 -260 -160 -285 -14 -25 -53 -94 -88 -155 -34 -60 -74 -130 -88 -155
-14 -25 -162 -286 -330 -580 -168 -294 -314 -551 -325 -570 -75 -133 -381
-667 -387 -675 -4 -5 -21 -35 -37 -65 -59 -108 -176 -311 -178 -308 -1 2 -53
91 -115 198 -149 259 -148 256 -187 325 -19 33 -43 76 -55 95 -11 19 -131 226
-266 460 -135 234 -289 501 -344 593 -54 93 -98 170 -98 172 0 2 -26 47 -58
102 -32 54 -70 118 -84 143 -14 25 -106 185 -205 355 -99 171 -191 330 -205
355 -14 25 -40 70 -58 100 -18 30 -38 64 -44 75 -63 112 -154 269 -177 305 -9
14 -30 50 -47 81 -17 30 -111 194 -210 365 -98 170 -290 503 -426 739 -137
237 -261 450 -276 475 -15 25 -39 65 -52 90 -14 25 -54 95 -90 156 -36 61 -68
117 -71 125 -4 8 -15 28 -26 44 -10 17 -111 192 -226 390 -114 198 -306 529
-425 735 -286 495 -513 887 -537 930 -11 19 -93 160 -182 313 -88 152 -161
279 -161 281 0 2 642 4 1427 5 785 1 1428 3 1429 4 5 5 1733 2 1736 -3z
m-4577 -287 c44 -76 85 -147 91 -158 6 -11 53 -92 104 -180 51 -88 111 -191
133 -230 22 -38 103 -178 180 -310 77 -132 151 -260 165 -285 13 -25 39 -70
57 -100 18 -30 42 -71 53 -90 10 -19 128 -224 262 -454 133 -231 254 -440 268
-465 14 -25 36 -63 49 -83 12 -21 23 -40 23 -43 0 -3 8 -18 19 -33 16 -23 153
-257 229 -392 14 -25 82 -144 152 -265 70 -121 137 -237 148 -257 12 -20 32
-55 46 -77 15 -22 26 -43 26 -45 0 -3 32 -57 70 -122 39 -64 70 -118 70 -119
0 -2 39 -70 86 -152 75 -128 287 -495 714 -1233 59 -102 159 -275 222 -385 64
-110 157 -272 208 -360 51 -88 101 -173 110 -190 9 -16 91 -158 182 -315 91
-157 175 -301 185 -320 48 -84 154 -266 163 -280 5 -8 18 -31 28 -50 10 -19
64 -112 119 -206 55 -94 103 -177 106 -185 4 -8 16 -27 26 -44 25 -40 199
-343 216 -376 l14 -26 -2292 1 -2292 1 -82 140 c-46 77 -89 151 -96 165 -30
57 -671 1157 -688 1182 -10 15 -19 29 -19 31 0 3 -52 94 -116 203 -64 110
-124 213 -134 229 -9 17 -99 172 -200 345 -101 173 -191 329 -200 345 -10 17
-73 125 -140 240 -67 116 -130 224 -140 240 -45 79 -350 603 -410 705 -37 63
-78 133 -90 155 l-23 41 60 104 c33 58 69 121 80 140 53 94 614 1078 753 1320
87 151 170 298 185 325 16 28 91 160 168 295 77 135 151 265 165 290 13 25 28
50 32 55 4 6 21 35 37 65 17 30 65 116 108 190 42 74 89 155 103 180 14 25
106 187 205 360 99 173 189 332 201 353 12 21 26 46 31 55 6 9 43 75 84 146
l74 129 16 -31 c9 -17 52 -93 96 -169z"/>
</g>
</svg>
